<svg width="27" height="22" viewBox="0 0 27 22" fill="none" xmlns="http://www.w3.org/2000/svg">
<path d="M0 1C0 0.447715 0.447715 0 1 0H26C26.5523 0 27 0.447715 27 1C27 1.55228 26.5523 2 26 2H1C0.447715 2 0 1.55228 0 1Z" fill="#343434"/>
<path d="M0 11C0 10.4477 0.447715 10 1 10H26C26.5523 10 27 10.4477 27 11C27 11.5523 26.5523 12 26 12H1C0.447715 12 0 11.5523 0 11Z" fill="#343434"/>
<path d="M1 20C0.447715 20 0 20.4477 0 21C0 21.5523 0.447715 22 1 22H26C26.5523 22 27 21.5523 27 21C27 20.4477 26.5523 20 26 20H1Z" fill="#343434"/>
</svg>
